%TF.GenerationSoftware,KiCad,Pcbnew,7.0.7*%
%TF.CreationDate,2024-10-03T15:52:36-07:00*%
%TF.ProjectId,Zoe_PCB,5a6f655f-5043-4422-9e6b-696361645f70,rev?*%
%TF.SameCoordinates,Original*%
%TF.FileFunction,Legend,Bot*%
%TF.FilePolarity,Positive*%
%FSLAX46Y46*%
G04 Gerber Fmt 4.6, Leading zero omitted, Abs format (unit mm)*
G04 Created by KiCad (PCBNEW 7.0.7) date 2024-10-03 15:52:36*
%MOMM*%
%LPD*%
G01*
G04 APERTURE LIST*
%ADD10C,0.127000*%
%ADD11R,1.700000X1.700000*%
%ADD12O,1.700000X1.700000*%
G04 APERTURE END LIST*
D10*
X145910810Y-89811061D02*
X145910810Y-89049061D01*
X145910810Y-89049061D02*
X146152715Y-89049061D01*
X146152715Y-89049061D02*
X146213191Y-89085347D01*
X146213191Y-89085347D02*
X146243429Y-89121633D01*
X146243429Y-89121633D02*
X146273667Y-89194204D01*
X146273667Y-89194204D02*
X146273667Y-89303061D01*
X146273667Y-89303061D02*
X146243429Y-89375633D01*
X146243429Y-89375633D02*
X146213191Y-89411918D01*
X146213191Y-89411918D02*
X146152715Y-89448204D01*
X146152715Y-89448204D02*
X145910810Y-89448204D01*
X146485334Y-89049061D02*
X146636524Y-89811061D01*
X146636524Y-89811061D02*
X146757477Y-89266776D01*
X146757477Y-89266776D02*
X146878429Y-89811061D01*
X146878429Y-89811061D02*
X147029620Y-89049061D01*
X147271524Y-89811061D02*
X147271524Y-89049061D01*
X147271524Y-89049061D02*
X147483191Y-89593347D01*
X147483191Y-89593347D02*
X147694857Y-89049061D01*
X147694857Y-89049061D02*
X147694857Y-89811061D01*
X146545809Y-92264701D02*
X146545809Y-91502701D01*
X146848190Y-92264701D02*
X146848190Y-91502701D01*
X146848190Y-91502701D02*
X147211047Y-92264701D01*
X147211047Y-92264701D02*
X147211047Y-91502701D01*
X147422714Y-91502701D02*
X147785571Y-91502701D01*
X147604142Y-92264701D02*
X147604142Y-91502701D01*
X147120333Y-94718341D02*
X146908666Y-94355484D01*
X146757476Y-94718341D02*
X146757476Y-93956341D01*
X146757476Y-93956341D02*
X146999381Y-93956341D01*
X146999381Y-93956341D02*
X147059857Y-93992627D01*
X147059857Y-93992627D02*
X147090095Y-94028913D01*
X147090095Y-94028913D02*
X147120333Y-94101484D01*
X147120333Y-94101484D02*
X147120333Y-94210341D01*
X147120333Y-94210341D02*
X147090095Y-94282913D01*
X147090095Y-94282913D02*
X147059857Y-94319198D01*
X147059857Y-94319198D02*
X146999381Y-94355484D01*
X146999381Y-94355484D02*
X146757476Y-94355484D01*
X147332000Y-93956341D02*
X147755333Y-94718341D01*
X147755333Y-93956341D02*
X147332000Y-94718341D01*
X146817952Y-96409981D02*
X147180809Y-96409981D01*
X146999380Y-97171981D02*
X146999380Y-96409981D01*
X147332000Y-96409981D02*
X147755333Y-97171981D01*
X147755333Y-96409981D02*
X147332000Y-97171981D01*
X146213190Y-99589336D02*
X146303904Y-99625621D01*
X146303904Y-99625621D02*
X146455095Y-99625621D01*
X146455095Y-99625621D02*
X146515571Y-99589336D01*
X146515571Y-99589336D02*
X146545809Y-99553050D01*
X146545809Y-99553050D02*
X146576047Y-99480478D01*
X146576047Y-99480478D02*
X146576047Y-99407907D01*
X146576047Y-99407907D02*
X146545809Y-99335336D01*
X146545809Y-99335336D02*
X146515571Y-99299050D01*
X146515571Y-99299050D02*
X146455095Y-99262764D01*
X146455095Y-99262764D02*
X146334142Y-99226478D01*
X146334142Y-99226478D02*
X146273666Y-99190193D01*
X146273666Y-99190193D02*
X146243428Y-99153907D01*
X146243428Y-99153907D02*
X146213190Y-99081336D01*
X146213190Y-99081336D02*
X146213190Y-99008764D01*
X146213190Y-99008764D02*
X146243428Y-98936193D01*
X146243428Y-98936193D02*
X146273666Y-98899907D01*
X146273666Y-98899907D02*
X146334142Y-98863621D01*
X146334142Y-98863621D02*
X146485333Y-98863621D01*
X146485333Y-98863621D02*
X146576047Y-98899907D01*
X147211047Y-99553050D02*
X147180809Y-99589336D01*
X147180809Y-99589336D02*
X147090095Y-99625621D01*
X147090095Y-99625621D02*
X147029619Y-99625621D01*
X147029619Y-99625621D02*
X146938904Y-99589336D01*
X146938904Y-99589336D02*
X146878428Y-99516764D01*
X146878428Y-99516764D02*
X146848190Y-99444193D01*
X146848190Y-99444193D02*
X146817952Y-99299050D01*
X146817952Y-99299050D02*
X146817952Y-99190193D01*
X146817952Y-99190193D02*
X146848190Y-99045050D01*
X146848190Y-99045050D02*
X146878428Y-98972478D01*
X146878428Y-98972478D02*
X146938904Y-98899907D01*
X146938904Y-98899907D02*
X147029619Y-98863621D01*
X147029619Y-98863621D02*
X147090095Y-98863621D01*
X147090095Y-98863621D02*
X147180809Y-98899907D01*
X147180809Y-98899907D02*
X147211047Y-98936193D01*
X147785571Y-99625621D02*
X147483190Y-99625621D01*
X147483190Y-99625621D02*
X147483190Y-98863621D01*
X146182952Y-102042976D02*
X146273666Y-102079261D01*
X146273666Y-102079261D02*
X146424857Y-102079261D01*
X146424857Y-102079261D02*
X146485333Y-102042976D01*
X146485333Y-102042976D02*
X146515571Y-102006690D01*
X146515571Y-102006690D02*
X146545809Y-101934118D01*
X146545809Y-101934118D02*
X146545809Y-101861547D01*
X146545809Y-101861547D02*
X146515571Y-101788976D01*
X146515571Y-101788976D02*
X146485333Y-101752690D01*
X146485333Y-101752690D02*
X146424857Y-101716404D01*
X146424857Y-101716404D02*
X146303904Y-101680118D01*
X146303904Y-101680118D02*
X146243428Y-101643833D01*
X146243428Y-101643833D02*
X146213190Y-101607547D01*
X146213190Y-101607547D02*
X146182952Y-101534976D01*
X146182952Y-101534976D02*
X146182952Y-101462404D01*
X146182952Y-101462404D02*
X146213190Y-101389833D01*
X146213190Y-101389833D02*
X146243428Y-101353547D01*
X146243428Y-101353547D02*
X146303904Y-101317261D01*
X146303904Y-101317261D02*
X146455095Y-101317261D01*
X146455095Y-101317261D02*
X146545809Y-101353547D01*
X146817952Y-102079261D02*
X146817952Y-101317261D01*
X146817952Y-101317261D02*
X146969142Y-101317261D01*
X146969142Y-101317261D02*
X147059857Y-101353547D01*
X147059857Y-101353547D02*
X147120333Y-101426118D01*
X147120333Y-101426118D02*
X147150571Y-101498690D01*
X147150571Y-101498690D02*
X147180809Y-101643833D01*
X147180809Y-101643833D02*
X147180809Y-101752690D01*
X147180809Y-101752690D02*
X147150571Y-101897833D01*
X147150571Y-101897833D02*
X147120333Y-101970404D01*
X147120333Y-101970404D02*
X147059857Y-102042976D01*
X147059857Y-102042976D02*
X146969142Y-102079261D01*
X146969142Y-102079261D02*
X146817952Y-102079261D01*
X147422714Y-101861547D02*
X147725095Y-101861547D01*
X147362238Y-102079261D02*
X147573904Y-101317261D01*
X147573904Y-101317261D02*
X147785571Y-102079261D01*
X146062000Y-104242616D02*
X146545810Y-104242616D01*
X146303905Y-104532901D02*
X146303905Y-103952330D01*
X147150571Y-103770901D02*
X146848190Y-103770901D01*
X146848190Y-103770901D02*
X146817952Y-104133758D01*
X146817952Y-104133758D02*
X146848190Y-104097473D01*
X146848190Y-104097473D02*
X146908666Y-104061187D01*
X146908666Y-104061187D02*
X147059857Y-104061187D01*
X147059857Y-104061187D02*
X147120333Y-104097473D01*
X147120333Y-104097473D02*
X147150571Y-104133758D01*
X147150571Y-104133758D02*
X147180809Y-104206330D01*
X147180809Y-104206330D02*
X147180809Y-104387758D01*
X147180809Y-104387758D02*
X147150571Y-104460330D01*
X147150571Y-104460330D02*
X147120333Y-104496616D01*
X147120333Y-104496616D02*
X147059857Y-104532901D01*
X147059857Y-104532901D02*
X146908666Y-104532901D01*
X146908666Y-104532901D02*
X146848190Y-104496616D01*
X146848190Y-104496616D02*
X146817952Y-104460330D01*
X147362238Y-103770901D02*
X147573904Y-104532901D01*
X147573904Y-104532901D02*
X147785571Y-103770901D01*
X146394619Y-106260827D02*
X146334143Y-106224541D01*
X146334143Y-106224541D02*
X146243429Y-106224541D01*
X146243429Y-106224541D02*
X146152714Y-106260827D01*
X146152714Y-106260827D02*
X146092238Y-106333398D01*
X146092238Y-106333398D02*
X146062000Y-106405970D01*
X146062000Y-106405970D02*
X146031762Y-106551113D01*
X146031762Y-106551113D02*
X146031762Y-106659970D01*
X146031762Y-106659970D02*
X146062000Y-106805113D01*
X146062000Y-106805113D02*
X146092238Y-106877684D01*
X146092238Y-106877684D02*
X146152714Y-106950256D01*
X146152714Y-106950256D02*
X146243429Y-106986541D01*
X146243429Y-106986541D02*
X146303905Y-106986541D01*
X146303905Y-106986541D02*
X146394619Y-106950256D01*
X146394619Y-106950256D02*
X146424857Y-106913970D01*
X146424857Y-106913970D02*
X146424857Y-106659970D01*
X146424857Y-106659970D02*
X146303905Y-106659970D01*
X146697000Y-106986541D02*
X146697000Y-106224541D01*
X146697000Y-106224541D02*
X147059857Y-106986541D01*
X147059857Y-106986541D02*
X147059857Y-106224541D01*
X147362238Y-106986541D02*
X147362238Y-106224541D01*
X147362238Y-106224541D02*
X147513428Y-106224541D01*
X147513428Y-106224541D02*
X147604143Y-106260827D01*
X147604143Y-106260827D02*
X147664619Y-106333398D01*
X147664619Y-106333398D02*
X147694857Y-106405970D01*
X147694857Y-106405970D02*
X147725095Y-106551113D01*
X147725095Y-106551113D02*
X147725095Y-106659970D01*
X147725095Y-106659970D02*
X147694857Y-106805113D01*
X147694857Y-106805113D02*
X147664619Y-106877684D01*
X147664619Y-106877684D02*
X147604143Y-106950256D01*
X147604143Y-106950256D02*
X147513428Y-106986541D01*
X147513428Y-106986541D02*
X147362238Y-106986541D01*
X129744504Y-89186947D02*
X130046885Y-89186947D01*
X129684028Y-89404661D02*
X129895694Y-88642661D01*
X129895694Y-88642661D02*
X130107361Y-89404661D01*
X130319028Y-89404661D02*
X130319028Y-88642661D01*
X130319028Y-88642661D02*
X130681885Y-89404661D01*
X130681885Y-89404661D02*
X130681885Y-88642661D01*
X130137599Y-91858301D02*
X129925932Y-91495444D01*
X129774742Y-91858301D02*
X129774742Y-91096301D01*
X129774742Y-91096301D02*
X130016647Y-91096301D01*
X130016647Y-91096301D02*
X130077123Y-91132587D01*
X130077123Y-91132587D02*
X130107361Y-91168873D01*
X130107361Y-91168873D02*
X130137599Y-91241444D01*
X130137599Y-91241444D02*
X130137599Y-91350301D01*
X130137599Y-91350301D02*
X130107361Y-91422873D01*
X130107361Y-91422873D02*
X130077123Y-91459158D01*
X130077123Y-91459158D02*
X130016647Y-91495444D01*
X130016647Y-91495444D02*
X129774742Y-91495444D01*
X130379504Y-91822016D02*
X130470218Y-91858301D01*
X130470218Y-91858301D02*
X130621409Y-91858301D01*
X130621409Y-91858301D02*
X130681885Y-91822016D01*
X130681885Y-91822016D02*
X130712123Y-91785730D01*
X130712123Y-91785730D02*
X130742361Y-91713158D01*
X130742361Y-91713158D02*
X130742361Y-91640587D01*
X130742361Y-91640587D02*
X130712123Y-91568016D01*
X130712123Y-91568016D02*
X130681885Y-91531730D01*
X130681885Y-91531730D02*
X130621409Y-91495444D01*
X130621409Y-91495444D02*
X130500456Y-91459158D01*
X130500456Y-91459158D02*
X130439980Y-91422873D01*
X130439980Y-91422873D02*
X130409742Y-91386587D01*
X130409742Y-91386587D02*
X130379504Y-91314016D01*
X130379504Y-91314016D02*
X130379504Y-91241444D01*
X130379504Y-91241444D02*
X130409742Y-91168873D01*
X130409742Y-91168873D02*
X130439980Y-91132587D01*
X130439980Y-91132587D02*
X130500456Y-91096301D01*
X130500456Y-91096301D02*
X130651647Y-91096301D01*
X130651647Y-91096301D02*
X130742361Y-91132587D01*
X130923790Y-91096301D02*
X131286647Y-91096301D01*
X131105218Y-91858301D02*
X131105218Y-91096301D01*
X130137599Y-94239370D02*
X130107361Y-94275656D01*
X130107361Y-94275656D02*
X130016647Y-94311941D01*
X130016647Y-94311941D02*
X129956171Y-94311941D01*
X129956171Y-94311941D02*
X129865456Y-94275656D01*
X129865456Y-94275656D02*
X129804980Y-94203084D01*
X129804980Y-94203084D02*
X129774742Y-94130513D01*
X129774742Y-94130513D02*
X129744504Y-93985370D01*
X129744504Y-93985370D02*
X129744504Y-93876513D01*
X129744504Y-93876513D02*
X129774742Y-93731370D01*
X129774742Y-93731370D02*
X129804980Y-93658798D01*
X129804980Y-93658798D02*
X129865456Y-93586227D01*
X129865456Y-93586227D02*
X129956171Y-93549941D01*
X129956171Y-93549941D02*
X130016647Y-93549941D01*
X130016647Y-93549941D02*
X130107361Y-93586227D01*
X130107361Y-93586227D02*
X130137599Y-93622513D01*
X130379504Y-94275656D02*
X130470218Y-94311941D01*
X130470218Y-94311941D02*
X130621409Y-94311941D01*
X130621409Y-94311941D02*
X130681885Y-94275656D01*
X130681885Y-94275656D02*
X130712123Y-94239370D01*
X130712123Y-94239370D02*
X130742361Y-94166798D01*
X130742361Y-94166798D02*
X130742361Y-94094227D01*
X130742361Y-94094227D02*
X130712123Y-94021656D01*
X130712123Y-94021656D02*
X130681885Y-93985370D01*
X130681885Y-93985370D02*
X130621409Y-93949084D01*
X130621409Y-93949084D02*
X130500456Y-93912798D01*
X130500456Y-93912798D02*
X130439980Y-93876513D01*
X130439980Y-93876513D02*
X130409742Y-93840227D01*
X130409742Y-93840227D02*
X130379504Y-93767656D01*
X130379504Y-93767656D02*
X130379504Y-93695084D01*
X130379504Y-93695084D02*
X130409742Y-93622513D01*
X130409742Y-93622513D02*
X130439980Y-93586227D01*
X130439980Y-93586227D02*
X130500456Y-93549941D01*
X130500456Y-93549941D02*
X130651647Y-93549941D01*
X130651647Y-93549941D02*
X130742361Y-93586227D01*
X129744504Y-96729296D02*
X129835218Y-96765581D01*
X129835218Y-96765581D02*
X129986409Y-96765581D01*
X129986409Y-96765581D02*
X130046885Y-96729296D01*
X130046885Y-96729296D02*
X130077123Y-96693010D01*
X130077123Y-96693010D02*
X130107361Y-96620438D01*
X130107361Y-96620438D02*
X130107361Y-96547867D01*
X130107361Y-96547867D02*
X130077123Y-96475296D01*
X130077123Y-96475296D02*
X130046885Y-96439010D01*
X130046885Y-96439010D02*
X129986409Y-96402724D01*
X129986409Y-96402724D02*
X129865456Y-96366438D01*
X129865456Y-96366438D02*
X129804980Y-96330153D01*
X129804980Y-96330153D02*
X129774742Y-96293867D01*
X129774742Y-96293867D02*
X129744504Y-96221296D01*
X129744504Y-96221296D02*
X129744504Y-96148724D01*
X129744504Y-96148724D02*
X129774742Y-96076153D01*
X129774742Y-96076153D02*
X129804980Y-96039867D01*
X129804980Y-96039867D02*
X129865456Y-96003581D01*
X129865456Y-96003581D02*
X130016647Y-96003581D01*
X130016647Y-96003581D02*
X130107361Y-96039867D01*
X130742361Y-96693010D02*
X130712123Y-96729296D01*
X130712123Y-96729296D02*
X130621409Y-96765581D01*
X130621409Y-96765581D02*
X130560933Y-96765581D01*
X130560933Y-96765581D02*
X130470218Y-96729296D01*
X130470218Y-96729296D02*
X130409742Y-96656724D01*
X130409742Y-96656724D02*
X130379504Y-96584153D01*
X130379504Y-96584153D02*
X130349266Y-96439010D01*
X130349266Y-96439010D02*
X130349266Y-96330153D01*
X130349266Y-96330153D02*
X130379504Y-96185010D01*
X130379504Y-96185010D02*
X130409742Y-96112438D01*
X130409742Y-96112438D02*
X130470218Y-96039867D01*
X130470218Y-96039867D02*
X130560933Y-96003581D01*
X130560933Y-96003581D02*
X130621409Y-96003581D01*
X130621409Y-96003581D02*
X130712123Y-96039867D01*
X130712123Y-96039867D02*
X130742361Y-96076153D01*
X131014504Y-96765581D02*
X131014504Y-96003581D01*
X131377361Y-96765581D02*
X131105218Y-96330153D01*
X131377361Y-96003581D02*
X131014504Y-96439010D01*
X129774742Y-99219221D02*
X129774742Y-98457221D01*
X129774742Y-98457221D02*
X129986409Y-99001507D01*
X129986409Y-99001507D02*
X130198075Y-98457221D01*
X130198075Y-98457221D02*
X130198075Y-99219221D01*
X130500456Y-99219221D02*
X130500456Y-98457221D01*
X130772599Y-99182936D02*
X130863313Y-99219221D01*
X130863313Y-99219221D02*
X131014504Y-99219221D01*
X131014504Y-99219221D02*
X131074980Y-99182936D01*
X131074980Y-99182936D02*
X131105218Y-99146650D01*
X131105218Y-99146650D02*
X131135456Y-99074078D01*
X131135456Y-99074078D02*
X131135456Y-99001507D01*
X131135456Y-99001507D02*
X131105218Y-98928936D01*
X131105218Y-98928936D02*
X131074980Y-98892650D01*
X131074980Y-98892650D02*
X131014504Y-98856364D01*
X131014504Y-98856364D02*
X130893551Y-98820078D01*
X130893551Y-98820078D02*
X130833075Y-98783793D01*
X130833075Y-98783793D02*
X130802837Y-98747507D01*
X130802837Y-98747507D02*
X130772599Y-98674936D01*
X130772599Y-98674936D02*
X130772599Y-98602364D01*
X130772599Y-98602364D02*
X130802837Y-98529793D01*
X130802837Y-98529793D02*
X130833075Y-98493507D01*
X130833075Y-98493507D02*
X130893551Y-98457221D01*
X130893551Y-98457221D02*
X131044742Y-98457221D01*
X131044742Y-98457221D02*
X131135456Y-98493507D01*
X131528551Y-98457221D02*
X131649504Y-98457221D01*
X131649504Y-98457221D02*
X131709980Y-98493507D01*
X131709980Y-98493507D02*
X131770456Y-98566078D01*
X131770456Y-98566078D02*
X131800694Y-98711221D01*
X131800694Y-98711221D02*
X131800694Y-98965221D01*
X131800694Y-98965221D02*
X131770456Y-99110364D01*
X131770456Y-99110364D02*
X131709980Y-99182936D01*
X131709980Y-99182936D02*
X131649504Y-99219221D01*
X131649504Y-99219221D02*
X131528551Y-99219221D01*
X131528551Y-99219221D02*
X131468075Y-99182936D01*
X131468075Y-99182936D02*
X131407599Y-99110364D01*
X131407599Y-99110364D02*
X131377361Y-98965221D01*
X131377361Y-98965221D02*
X131377361Y-98711221D01*
X131377361Y-98711221D02*
X131407599Y-98566078D01*
X131407599Y-98566078D02*
X131468075Y-98493507D01*
X131468075Y-98493507D02*
X131528551Y-98457221D01*
X129774742Y-101672861D02*
X129774742Y-100910861D01*
X129774742Y-100910861D02*
X129986409Y-101455147D01*
X129986409Y-101455147D02*
X130198075Y-100910861D01*
X130198075Y-100910861D02*
X130198075Y-101672861D01*
X130621408Y-100910861D02*
X130742361Y-100910861D01*
X130742361Y-100910861D02*
X130802837Y-100947147D01*
X130802837Y-100947147D02*
X130863313Y-101019718D01*
X130863313Y-101019718D02*
X130893551Y-101164861D01*
X130893551Y-101164861D02*
X130893551Y-101418861D01*
X130893551Y-101418861D02*
X130863313Y-101564004D01*
X130863313Y-101564004D02*
X130802837Y-101636576D01*
X130802837Y-101636576D02*
X130742361Y-101672861D01*
X130742361Y-101672861D02*
X130621408Y-101672861D01*
X130621408Y-101672861D02*
X130560932Y-101636576D01*
X130560932Y-101636576D02*
X130500456Y-101564004D01*
X130500456Y-101564004D02*
X130470218Y-101418861D01*
X130470218Y-101418861D02*
X130470218Y-101164861D01*
X130470218Y-101164861D02*
X130500456Y-101019718D01*
X130500456Y-101019718D02*
X130560932Y-100947147D01*
X130560932Y-100947147D02*
X130621408Y-100910861D01*
X131135456Y-101636576D02*
X131226170Y-101672861D01*
X131226170Y-101672861D02*
X131377361Y-101672861D01*
X131377361Y-101672861D02*
X131437837Y-101636576D01*
X131437837Y-101636576D02*
X131468075Y-101600290D01*
X131468075Y-101600290D02*
X131498313Y-101527718D01*
X131498313Y-101527718D02*
X131498313Y-101455147D01*
X131498313Y-101455147D02*
X131468075Y-101382576D01*
X131468075Y-101382576D02*
X131437837Y-101346290D01*
X131437837Y-101346290D02*
X131377361Y-101310004D01*
X131377361Y-101310004D02*
X131256408Y-101273718D01*
X131256408Y-101273718D02*
X131195932Y-101237433D01*
X131195932Y-101237433D02*
X131165694Y-101201147D01*
X131165694Y-101201147D02*
X131135456Y-101128576D01*
X131135456Y-101128576D02*
X131135456Y-101056004D01*
X131135456Y-101056004D02*
X131165694Y-100983433D01*
X131165694Y-100983433D02*
X131195932Y-100947147D01*
X131195932Y-100947147D02*
X131256408Y-100910861D01*
X131256408Y-100910861D02*
X131407599Y-100910861D01*
X131407599Y-100910861D02*
X131498313Y-100947147D01*
X131770456Y-101672861D02*
X131770456Y-100910861D01*
X129774742Y-103836216D02*
X130258552Y-103836216D01*
X130016647Y-104126501D02*
X130016647Y-103545930D01*
X130500456Y-103364501D02*
X130893551Y-103364501D01*
X130893551Y-103364501D02*
X130681884Y-103654787D01*
X130681884Y-103654787D02*
X130772599Y-103654787D01*
X130772599Y-103654787D02*
X130833075Y-103691073D01*
X130833075Y-103691073D02*
X130863313Y-103727358D01*
X130863313Y-103727358D02*
X130893551Y-103799930D01*
X130893551Y-103799930D02*
X130893551Y-103981358D01*
X130893551Y-103981358D02*
X130863313Y-104053930D01*
X130863313Y-104053930D02*
X130833075Y-104090216D01*
X130833075Y-104090216D02*
X130772599Y-104126501D01*
X130772599Y-104126501D02*
X130591170Y-104126501D01*
X130591170Y-104126501D02*
X130530694Y-104090216D01*
X130530694Y-104090216D02*
X130500456Y-104053930D01*
X131165694Y-104053930D02*
X131195932Y-104090216D01*
X131195932Y-104090216D02*
X131165694Y-104126501D01*
X131165694Y-104126501D02*
X131135456Y-104090216D01*
X131135456Y-104090216D02*
X131165694Y-104053930D01*
X131165694Y-104053930D02*
X131165694Y-104126501D01*
X131407599Y-103364501D02*
X131800694Y-103364501D01*
X131800694Y-103364501D02*
X131589027Y-103654787D01*
X131589027Y-103654787D02*
X131679742Y-103654787D01*
X131679742Y-103654787D02*
X131740218Y-103691073D01*
X131740218Y-103691073D02*
X131770456Y-103727358D01*
X131770456Y-103727358D02*
X131800694Y-103799930D01*
X131800694Y-103799930D02*
X131800694Y-103981358D01*
X131800694Y-103981358D02*
X131770456Y-104053930D01*
X131770456Y-104053930D02*
X131740218Y-104090216D01*
X131740218Y-104090216D02*
X131679742Y-104126501D01*
X131679742Y-104126501D02*
X131498313Y-104126501D01*
X131498313Y-104126501D02*
X131437837Y-104090216D01*
X131437837Y-104090216D02*
X131407599Y-104053930D01*
X131982123Y-103364501D02*
X132193789Y-104126501D01*
X132193789Y-104126501D02*
X132405456Y-103364501D01*
X130107361Y-105854427D02*
X130046885Y-105818141D01*
X130046885Y-105818141D02*
X129956171Y-105818141D01*
X129956171Y-105818141D02*
X129865456Y-105854427D01*
X129865456Y-105854427D02*
X129804980Y-105926998D01*
X129804980Y-105926998D02*
X129774742Y-105999570D01*
X129774742Y-105999570D02*
X129744504Y-106144713D01*
X129744504Y-106144713D02*
X129744504Y-106253570D01*
X129744504Y-106253570D02*
X129774742Y-106398713D01*
X129774742Y-106398713D02*
X129804980Y-106471284D01*
X129804980Y-106471284D02*
X129865456Y-106543856D01*
X129865456Y-106543856D02*
X129956171Y-106580141D01*
X129956171Y-106580141D02*
X130016647Y-106580141D01*
X130016647Y-106580141D02*
X130107361Y-106543856D01*
X130107361Y-106543856D02*
X130137599Y-106507570D01*
X130137599Y-106507570D02*
X130137599Y-106253570D01*
X130137599Y-106253570D02*
X130016647Y-106253570D01*
X130409742Y-106580141D02*
X130409742Y-105818141D01*
X130409742Y-105818141D02*
X130772599Y-106580141D01*
X130772599Y-106580141D02*
X130772599Y-105818141D01*
X131074980Y-106580141D02*
X131074980Y-105818141D01*
X131074980Y-105818141D02*
X131226170Y-105818141D01*
X131226170Y-105818141D02*
X131316885Y-105854427D01*
X131316885Y-105854427D02*
X131377361Y-105926998D01*
X131377361Y-105926998D02*
X131407599Y-105999570D01*
X131407599Y-105999570D02*
X131437837Y-106144713D01*
X131437837Y-106144713D02*
X131437837Y-106253570D01*
X131437837Y-106253570D02*
X131407599Y-106398713D01*
X131407599Y-106398713D02*
X131377361Y-106471284D01*
X131377361Y-106471284D02*
X131316885Y-106543856D01*
X131316885Y-106543856D02*
X131226170Y-106580141D01*
X131226170Y-106580141D02*
X131074980Y-106580141D01*
%LPC*%
D11*
%TO.C,J2*%
X149860000Y-88900000D03*
D12*
X149860000Y-91440000D03*
X149860000Y-93980000D03*
X149860000Y-96520000D03*
X149860000Y-99060000D03*
X149860000Y-101600000D03*
X149860000Y-104140000D03*
X149860000Y-106680000D03*
%TD*%
D11*
%TO.C,J1*%
X127000000Y-88900000D03*
D12*
X127000000Y-91440000D03*
X127000000Y-93980000D03*
X127000000Y-96520000D03*
X127000000Y-99060000D03*
X127000000Y-101600000D03*
X127000000Y-104140000D03*
X127000000Y-106680000D03*
%TD*%
%LPD*%
M02*
