M48
; DRILL file {KiCad 7.0.7} date 2024 October 10, Thursday 12:37:00
; FORMAT={-:-/ absolute / inch / decimal}
; #@! TF.CreationDate,2024-10-10T12:37:00-07:00
; #@! TF.GenerationSoftware,Kicad,Pcbnew,7.0.7
; #@! TF.FileFunction,Plated,1,2,PTH
FMAT,2
INCH
; #@! TA.AperFunction,Plated,PTH,ViaDrill
T1C0.0157
; #@! TA.AperFunction,Plated,PTH,ComponentDrill
T2C0.0394
%
G90
G05
T1
X5.1Y-4.0
X5.2202Y-3.7202
X5.3Y-3.3
X5.3Y-3.4
X5.3Y-4.0
X5.4Y-3.7
X5.5Y-3.9
X5.5Y-4.0
X5.5Y-4.1
X5.6Y-3.7
X5.6Y-4.1
X5.7Y-3.3
X5.7Y-3.5
X5.7Y-4.1
X5.7673Y-3.8924
X5.8Y-4.0
T2
X5.0Y-3.5
X5.0Y-3.6
X5.0Y-3.7
X5.0Y-3.8
X5.0Y-3.9
X5.0Y-4.0
X5.0Y-4.1
X5.0Y-4.2
X5.9Y-3.5
X5.9Y-3.6
X5.9Y-3.7
X5.9Y-3.8
X5.9Y-3.9
X5.9Y-4.0
X5.9Y-4.1
X5.9Y-4.2
T0
M30
