%TF.GenerationSoftware,KiCad,Pcbnew,7.0.7*%
%TF.CreationDate,2024-10-03T15:52:36-07:00*%
%TF.ProjectId,Zoe_PCB,5a6f655f-5043-4422-9e6b-696361645f70,rev?*%
%TF.SameCoordinates,Original*%
%TF.FileFunction,Soldermask,Top*%
%TF.FilePolarity,Negative*%
%FSLAX46Y46*%
G04 Gerber Fmt 4.6, Leading zero omitted, Abs format (unit mm)*
G04 Created by KiCad (PCBNEW 7.0.7) date 2024-10-03 15:52:36*
%MOMM*%
%LPD*%
G01*
G04 APERTURE LIST*
G04 Aperture macros list*
%AMRoundRect*
0 Rectangle with rounded corners*
0 $1 Rounding radius*
0 $2 $3 $4 $5 $6 $7 $8 $9 X,Y pos of 4 corners*
0 Add a 4 corners polygon primitive as box body*
4,1,4,$2,$3,$4,$5,$6,$7,$8,$9,$2,$3,0*
0 Add four circle primitives for the rounded corners*
1,1,$1+$1,$2,$3*
1,1,$1+$1,$4,$5*
1,1,$1+$1,$6,$7*
1,1,$1+$1,$8,$9*
0 Add four rect primitives between the rounded corners*
20,1,$1+$1,$2,$3,$4,$5,0*
20,1,$1+$1,$4,$5,$6,$7,0*
20,1,$1+$1,$6,$7,$8,$9,0*
20,1,$1+$1,$8,$9,$2,$3,0*%
G04 Aperture macros list end*
%ADD10RoundRect,0.250000X0.450000X-0.262500X0.450000X0.262500X-0.450000X0.262500X-0.450000X-0.262500X0*%
%ADD11RoundRect,0.243750X-0.456250X0.243750X-0.456250X-0.243750X0.456250X-0.243750X0.456250X0.243750X0*%
%ADD12RoundRect,0.250000X-0.450000X0.262500X-0.450000X-0.262500X0.450000X-0.262500X0.450000X0.262500X0*%
%ADD13R,1.700000X1.700000*%
%ADD14O,1.700000X1.700000*%
%ADD15RoundRect,0.192000X-0.800000X0.270000X-0.800000X-0.270000X0.800000X-0.270000X0.800000X0.270000X0*%
G04 APERTURE END LIST*
D10*
%TO.C,R4*%
X135255000Y-106125000D03*
X135255000Y-107950000D03*
%TD*%
D11*
%TO.C,D1*%
X137160000Y-99725000D03*
X137160000Y-101600000D03*
%TD*%
%TO.C,D5*%
X144780000Y-93980000D03*
X144780000Y-95855000D03*
%TD*%
%TO.C,D4*%
X142240000Y-99725000D03*
X142240000Y-101600000D03*
%TD*%
%TO.C,D2*%
X134620000Y-93980000D03*
X134620000Y-95855000D03*
%TD*%
D12*
%TO.C,R5*%
X132080000Y-106125000D03*
X132080000Y-107950000D03*
%TD*%
%TO.C,R2*%
X141605000Y-106125000D03*
X141605000Y-107950000D03*
%TD*%
%TO.C,R3*%
X138430000Y-106125000D03*
X138430000Y-107950000D03*
%TD*%
D13*
%TO.C,J2*%
X149860000Y-88900000D03*
D14*
X149860000Y-91440000D03*
X149860000Y-93980000D03*
X149860000Y-96520000D03*
X149860000Y-99060000D03*
X149860000Y-101600000D03*
X149860000Y-104140000D03*
X149860000Y-106680000D03*
%TD*%
D12*
%TO.C,R1*%
X144780000Y-106125000D03*
X144780000Y-107950000D03*
%TD*%
D11*
%TO.C,D3*%
X139700000Y-89565000D03*
X139700000Y-91440000D03*
%TD*%
D15*
%TO.C,U1*%
X137160000Y-82550000D03*
X137160000Y-83820000D03*
X137160000Y-85090000D03*
X137160000Y-86360000D03*
X141840000Y-86360000D03*
X141840000Y-85090000D03*
X141840000Y-83820000D03*
X141840000Y-82550000D03*
%TD*%
D13*
%TO.C,J1*%
X127000000Y-88900000D03*
D14*
X127000000Y-91440000D03*
X127000000Y-93980000D03*
X127000000Y-96520000D03*
X127000000Y-99060000D03*
X127000000Y-101600000D03*
X127000000Y-104140000D03*
X127000000Y-106680000D03*
%TD*%
M02*
